<svg xmlns="http://www.w3.org/2000/svg" viewBox="0 0 200 60" fill="none">
  <!-- Sundew tendril icon -->
  <g transform="translate(10, 5)">
    <!-- Main stem -->
    <path d="M25 50 Q25 30 20 15 Q18 8 25 5" stroke="#16A34A" stroke-width="2.5" fill="none" stroke-linecap="round"/>
    <!-- Left tendril -->
    <path d="M22 20 Q12 14 8 10" stroke="#16A34A" stroke-width="1.8" fill="none" stroke-linecap="round"/>
    <circle cx="7" cy="9" r="3.5" fill="#16A34A" opacity="0.8"/>
    <circle cx="7" cy="9" r="5" fill="#16A34A" opacity="0.15"/>
    <!-- Right tendril -->
    <path d="M24 25 Q34 18 38 14" stroke="#16A34A" stroke-width="1.8" fill="none" stroke-linecap="round"/>
    <circle cx="39" cy="13" r="3.5" fill="#16A34A" opacity="0.8"/>
    <circle cx="39" cy="13" r="5" fill="#16A34A" opacity="0.15"/>
    <!-- Top tendril -->
    <path d="M24 12 Q28 6 32 4" stroke="#16A34A" stroke-width="1.5" fill="none" stroke-linecap="round"/>
    <circle cx="33" cy="3" r="2.8" fill="#16A34A" opacity="0.8"/>
    <circle cx="33" cy="3" r="4.2" fill="#16A34A" opacity="0.15"/>
    <!-- Small left tendril -->
    <path d="M23 32 Q16 28 13 26" stroke="#16A34A" stroke-width="1.5" fill="none" stroke-linecap="round"/>
    <circle cx="12" cy="25" r="2.5" fill="#16A34A" opacity="0.8"/>
    <circle cx="12" cy="25" r="3.8" fill="#16A34A" opacity="0.15"/>
    <!-- Small right tendril -->
    <path d="M25 35 Q32 32 36 30" stroke="#16A34A" stroke-width="1.5" fill="none" stroke-linecap="round"/>
    <circle cx="37" cy="29" r="2.5" fill="#16A34A" opacity="0.8"/>
    <circle cx="37" cy="29" r="3.8" fill="#16A34A" opacity="0.15"/>
  </g>
  <!-- Text -->
  <text x="62" y="40" font-family="system-ui, -apple-system, 'Segoe UI', sans-serif" font-size="28" font-weight="600" fill="#1a1a1a" letter-spacing="-0.5">sundew</text>
</svg>
